<svg width="20" height="20" viewBox="0 0 20 20" fill="none" xmlns="http://www.w3.org/2000/svg">
<path d="M3.22852 3.229C2.91948 3.229 2.61739 3.32064 2.36044 3.49233C2.10349 3.66402 1.90322 3.90805 1.78495 4.19356C1.66669 4.47907 1.63575 4.79324 1.69604 5.09633C1.75633 5.39943 1.90514 5.67784 2.12366 5.89636C2.34218 6.11488 2.62059 6.26369 2.92369 6.32398C3.22678 6.38427 3.54095 6.35333 3.82646 6.23507C4.11197 6.1168 4.356 5.91653 4.52769 5.65958C4.69938 5.40263 4.79102 5.10054 4.79102 4.7915C4.79102 4.3771 4.6264 3.97968 4.33337 3.68665C4.04034 3.39362 3.64292 3.229 3.22852 3.229ZM3.22852 8.43734C2.91948 8.43734 2.61739 8.52898 2.36044 8.70067C2.10349 8.87236 1.90322 9.11639 1.78495 9.40189C1.66669 9.6874 1.63575 10.0016 1.69604 10.3047C1.75633 10.6078 1.90514 10.8862 2.12366 11.1047C2.34218 11.3232 2.62059 11.472 2.92369 11.5323C3.22678 11.5926 3.54095 11.5617 3.82646 11.4434C4.11197 11.3251 4.356 11.1249 4.52769 10.8679C4.69938 10.611 4.79102 10.3089 4.79102 9.99984C4.79102 9.58544 4.6264 9.18801 4.33337 8.89498C4.04034 8.60196 3.64292 8.43734 3.22852 8.43734ZM3.22852 13.6457C2.91948 13.6457 2.61739 13.7373 2.36044 13.909C2.10349 14.0807 1.90322 14.3247 1.78495 14.6102C1.66669 14.8957 1.63575 15.2099 1.69604 15.513C1.75633 15.8161 1.90514 16.0945 2.12366 16.313C2.34218 16.5315 2.62059 16.6804 2.92369 16.7406C3.22678 16.8009 3.54095 16.77 3.82646 16.6517C4.11197 16.5335 4.356 16.3332 4.52769 16.0762C4.69938 15.8193 4.79102 15.5172 4.79102 15.2082C4.79102 14.7938 4.6264 14.3963 4.33337 14.1033C4.04034 13.8103 3.64292 13.6457 3.22852 13.6457ZM17.8118 14.1665H7.39518C7.25705 14.1665 7.12457 14.2214 7.0269 14.3191C6.92922 14.4167 6.87435 14.5492 6.87435 14.6873V15.729C6.87435 15.8671 6.92922 15.9996 7.0269 16.0973C7.12457 16.195 7.25705 16.2498 7.39518 16.2498H17.8118C17.95 16.2498 18.0825 16.195 18.1801 16.0973C18.2778 15.9996 18.3327 15.8671 18.3327 15.729V14.6873C18.3327 14.5492 18.2778 14.4167 18.1801 14.3191C18.0825 14.2214 17.95 14.1665 17.8118 14.1665ZM17.8118 3.74984H7.39518C7.25705 3.74984 7.12457 3.80471 7.0269 3.90239C6.92922 4.00006 6.87435 4.13254 6.87435 4.27067V5.31234C6.87435 5.45047 6.92922 5.58295 7.0269 5.68062C7.12457 5.7783 7.25705 5.83317 7.39518 5.83317H17.8118C17.95 5.83317 18.0825 5.7783 18.1801 5.68062C18.2778 5.58295 18.3327 5.45047 18.3327 5.31234V4.27067C18.3327 4.13254 18.2778 4.00006 18.1801 3.90239C18.0825 3.80471 17.95 3.74984 17.8118 3.74984V3.74984ZM17.8118 8.95817H7.39518C7.25705 8.95817 7.12457 9.01304 7.0269 9.11072C6.92922 9.20839 6.87435 9.34087 6.87435 9.479V10.5207C6.87435 10.6588 6.92922 10.7913 7.0269 10.889C7.12457 10.9866 7.25705 11.0415 7.39518 11.0415H17.8118C17.95 11.0415 18.0825 10.9866 18.1801 10.889C18.2778 10.7913 18.3327 10.6588 18.3327 10.5207V9.479C18.3327 9.34087 18.2778 9.20839 18.1801 9.11072C18.0825 9.01304 17.95 8.95817 17.8118 8.95817Z" fill="white"/>
</svg>
