<svg width="20" height="20" viewBox="0 0 20 20" fill="none" xmlns="http://www.w3.org/2000/svg">
<path d="M16.547 1.6665H3.45173C2.46587 1.6665 1.66602 2.46636 1.66602 3.45222V16.5475C1.66602 17.5333 2.46587 18.3332 3.45173 18.3332H16.547C17.5328 18.3332 18.3327 17.5333 18.3327 16.5475V3.45222C18.3327 2.46636 17.5328 1.6665 16.547 1.6665ZM7.6184 14.1665C7.6184 14.4954 7.35203 14.7617 7.02316 14.7617H5.83268C5.50381 14.7617 5.23744 14.4954 5.23744 14.1665V9.4046C5.23744 9.07573 5.50381 8.80936 5.83268 8.80936H7.02316C7.35203 8.80936 7.6184 9.07573 7.6184 9.4046V14.1665ZM11.1898 14.1665C11.1898 14.4954 10.9235 14.7617 10.5946 14.7617H9.40411C9.07524 14.7617 8.80887 14.4954 8.80887 14.1665V5.83317C8.80887 5.5043 9.07524 5.23793 9.40411 5.23793H10.5946C10.9235 5.23793 11.1898 5.5043 11.1898 5.83317V14.1665ZM14.7613 14.1665C14.7613 14.4954 14.4949 14.7617 14.166 14.7617H12.9755C12.6467 14.7617 12.3803 14.4954 12.3803 14.1665V11.7856C12.3803 11.4567 12.6467 11.1903 12.9755 11.1903H14.166C14.4949 11.1903 14.7613 11.4567 14.7613 11.7856V14.1665Z" fill="black"/>
</svg>
