<svg width="182" height="28" viewBox="0 0 182 28" fill="none" xmlns="http://www.w3.org/2000/svg">
<path d="M40.2057 9.96021H45.8671V25.9291H40.2057V24.1527C39.0051 25.6656 37.3751 26.427 35.3155 26.427C34.1539 26.427 33.0802 26.2122 32.1139 25.7925C31.1378 25.363 30.2886 24.7676 29.5663 24.0062C28.844 23.2351 28.2778 22.3371 27.8679 21.3025C27.4579 20.2678 27.2627 19.1355 27.2627 17.9056C27.2627 16.7636 27.4579 15.6801 27.8581 14.6552C28.2486 13.6303 28.8049 12.7323 29.5077 11.9612C30.2105 11.1901 31.05 10.5849 32.026 10.1359C33.0021 9.6869 34.0758 9.4624 35.2667 9.4624C37.2579 9.4624 38.9075 10.1554 40.2155 11.5512V9.96021H40.2057ZM33.1095 17.8959C33.1095 18.4132 33.2071 18.9013 33.3926 19.3405C33.578 19.7895 33.8318 20.1799 34.1539 20.5118C34.476 20.8437 34.8567 21.1072 35.3057 21.2927C35.7547 21.4781 36.233 21.5758 36.7504 21.5758C37.2677 21.5758 37.7167 21.4781 38.1657 21.2927C38.6147 21.1072 38.9954 20.8437 39.3175 20.5118C39.6396 20.1799 39.8934 19.7993 40.0984 19.36C40.2936 18.9208 40.3912 18.462 40.3912 17.9544C40.3912 17.4469 40.2936 16.9881 40.0984 16.5391C39.9031 16.0901 39.6396 15.6997 39.3175 15.3678C38.9954 15.0359 38.6147 14.7724 38.1657 14.5869C37.7167 14.4014 37.2482 14.3038 36.7504 14.3038C36.2525 14.3038 35.745 14.4014 35.3057 14.5869C34.8567 14.7724 34.476 15.0359 34.1539 15.3678C33.8318 15.6997 33.578 16.0803 33.3926 16.5001C33.2071 16.9295 33.1095 17.3883 33.1095 17.8861V17.8959Z" fill="#00A15D"/>
<path d="M49.8789 9.96028H55.511V11.9808C56.2821 11.0438 57.0532 10.419 57.8439 10.0969C58.6345 9.77483 59.552 9.61865 60.616 9.61865C61.7385 9.61865 62.6951 9.80411 63.4955 10.1653C64.2959 10.5264 64.9791 11.0438 65.5355 11.7075C65.9943 12.2444 66.3066 12.8495 66.4725 13.5133C66.6385 14.177 66.7166 14.9384 66.7166 15.7876V25.939H61.0845V17.8764C61.0845 17.0858 61.0259 16.4513 60.9088 15.9633C60.7917 15.4752 60.5964 15.0848 60.3036 14.792C60.0596 14.5382 59.7765 14.3625 59.4642 14.2649C59.1518 14.1673 58.8199 14.1087 58.4686 14.1087C57.512 14.1087 56.7799 14.3918 56.2723 14.9677C55.7648 15.5338 55.511 16.3537 55.511 17.4079V25.939H49.8789V9.97005V9.96028Z" fill="#00A15D"/>
<path d="M70.2793 3.83051C70.2793 3.39127 70.3574 2.98131 70.5233 2.60063C70.6893 2.21995 70.9138 1.87832 71.2066 1.58549C71.4994 1.29266 71.8313 1.06816 72.2217 0.902223C72.6024 0.736286 73.0124 0.648438 73.4516 0.648438C73.8909 0.648438 74.3008 0.736286 74.6815 0.902223C75.0622 1.06816 75.4038 1.29266 75.6966 1.58549C75.9895 1.87832 76.214 2.21019 76.3799 2.60063C76.5458 2.98131 76.6337 3.39127 76.6337 3.83051C76.6337 4.26976 76.5458 4.67972 76.3799 5.06039C76.214 5.44107 75.9895 5.7827 75.6966 6.07553C75.4038 6.36836 75.0719 6.59286 74.6815 6.7588C74.3008 6.92474 73.8909 7.00283 73.4516 7.00283C73.0124 7.00283 72.6024 6.92474 72.2217 6.7588C71.841 6.59286 71.4994 6.36836 71.2066 6.07553C70.9138 5.7827 70.6893 5.45083 70.5233 5.06039C70.3574 4.67972 70.2793 4.26976 70.2793 3.83051ZM76.2823 9.9604V25.9293H70.6502V9.9604H76.2823Z" fill="#00A15D"/>
<path d="M1.25 2.47363V25.939H7.3506V11.5904L18.6148 25.939H24.6861L7.3506 2.47363H1.25Z" fill="#00A15D"/>
<path d="M18.5853 2.47363L15.1592 7.63718H18.5853V14.8212L24.6859 23.0107V2.47363H18.5853Z" fill="#00A15D"/>
<path d="M82.8032 19.4025H104.074V21.6514H82.8032V19.4025ZM87.3713 15.42H97.6555V17.3879H87.3713V15.42ZM92.3377 18.77H95.102V23.3381C95.102 23.9472 95.0161 24.4236 94.8443 24.7671C94.6725 25.1263 94.3446 25.3997 93.8604 25.5871C93.3763 25.7589 92.8062 25.8604 92.1503 25.8916C91.4944 25.9228 90.7213 25.9385 89.8311 25.9385C89.7686 25.5636 89.6515 25.1576 89.4797 24.7203C89.3079 24.283 89.1283 23.9004 88.9409 23.5724C89.3313 23.588 89.7218 23.6036 90.1122 23.6193C90.5183 23.6193 90.8775 23.6193 91.1898 23.6193C91.5178 23.6193 91.7364 23.6193 91.8458 23.6193C92.0332 23.6036 92.1581 23.5724 92.2206 23.5255C92.2987 23.4787 92.3377 23.385 92.3377 23.2444V18.77ZM96.9527 15.42H97.6086L98.1943 15.2795L99.7873 16.7319C99.2094 17.1536 98.5769 17.5753 97.8898 17.9969C97.2026 18.403 96.492 18.7934 95.758 19.1683C95.0396 19.5431 94.3133 19.8867 93.5793 20.199C93.4544 19.9647 93.2592 19.7149 92.9937 19.4494C92.7282 19.1683 92.5095 18.9418 92.3377 18.77C92.8843 18.5201 93.4544 18.2312 94.0478 17.9032C94.6413 17.5596 95.1957 17.2161 95.7111 16.8725C96.2265 16.5133 96.6404 16.1853 96.9527 15.8886V15.42ZM83.2249 12.3746H103.77V17.2004H100.982V14.4127H85.8721V17.2004H83.2249V12.3746ZM99.881 4.71422H102.552C102.505 5.6825 102.45 6.69764 102.388 7.75964C102.325 8.80601 102.255 9.82115 102.177 10.8051C102.099 11.789 102.013 12.6479 101.919 13.382H99.2016C99.311 12.6167 99.4125 11.7421 99.5062 10.7582C99.5999 9.7743 99.678 8.75916 99.7404 7.71279C99.8029 6.65079 99.8498 5.65127 99.881 4.71422ZM96.6247 4.71422H100.959V6.47119H96.6247V4.71422ZM89.3157 4.05828L90.4636 5.69812C89.7296 5.97924 88.9019 6.22131 87.9804 6.42434C87.059 6.62737 86.2391 6.78354 85.5207 6.89286L84.5602 5.37015C85.0287 5.27645 85.5519 5.15932 86.1297 5.01876C86.7076 4.86258 87.2776 4.70641 87.8399 4.55023C88.4021 4.37844 88.894 4.21446 89.3157 4.05828ZM85.9189 7.29111H90.2996V9.02466H85.9189V7.29111ZM85.9658 9.82115H90.3465V11.5781H85.9658V9.82115ZM96.7887 7.29111H100.724V9.02466H96.7887V7.29111ZM96.6482 9.82115H100.584V11.5781H96.6482V9.82115ZM94.3524 4.08171L96.1562 4.62051C95.6408 5.33892 94.9771 6.01828 94.165 6.6586C93.3529 7.29892 92.5486 7.82992 91.7521 8.25159C91.5959 8.0798 91.3694 7.86115 91.0727 7.59565C90.776 7.33016 90.5183 7.12713 90.2996 6.98657C91.0961 6.64298 91.8614 6.22131 92.5954 5.72155C93.3294 5.20617 93.9151 4.65956 94.3524 4.08171ZM90.7916 5.34673L92.0566 4.26912C92.5407 4.48776 93.0483 4.75326 93.5793 5.06561C94.1103 5.36234 94.6101 5.66689 95.0786 5.97924C95.5471 6.29159 95.9298 6.58051 96.2265 6.84601L94.8912 8.04075C94.6101 7.77526 94.2352 7.47852 93.7667 7.15055C93.3138 6.82258 92.8219 6.50243 92.2909 6.19008C91.7755 5.87772 91.2757 5.59661 90.7916 5.34673ZM94.3758 8.04075L96.2031 8.60299C95.6408 9.38386 94.9302 10.1179 94.0713 10.8051C93.2123 11.4766 92.3533 12.0388 91.4944 12.4918C91.3538 12.32 91.1352 12.0857 90.8384 11.789C90.5417 11.4922 90.2918 11.2658 90.0888 11.1096C90.9165 10.7504 91.7208 10.3053 92.5017 9.7743C93.2982 9.22769 93.9229 8.64984 94.3758 8.04075ZM90.651 9.35263L91.9629 8.27502C92.4627 8.5249 92.9937 8.81382 93.5559 9.14179C94.1181 9.45414 94.6491 9.78211 95.1489 10.1257C95.6486 10.4693 96.0547 10.7972 96.367 11.1096L94.9849 12.3278C94.7038 12.0154 94.3133 11.6874 93.8136 11.3439C93.3294 10.9847 92.8062 10.6333 92.244 10.2897C91.6974 9.93048 91.1664 9.61812 90.651 9.35263ZM84.5602 5.37015L87.2074 6.04952L87.629 13.2882H85.0287L84.5602 5.37015ZM109.158 16.0994H124.924V26.0087H121.995V18.2078H111.946V26.0087H109.158V16.0994ZM110.563 19.5665H122.768V21.6749H110.563V19.5665ZM110.727 23.0336H122.886V25.1654H110.727V23.0336ZM115.389 13.9442L118.411 14.3659C118.114 14.9749 117.802 15.5528 117.474 16.0994C117.146 16.646 116.857 17.1067 116.607 17.4816L114.312 16.9896C114.515 16.5367 114.718 16.0291 114.921 15.4669C115.139 14.9047 115.296 14.3971 115.389 13.9442ZM106.628 4.99533H114.171V7.17398H106.628V4.99533ZM113.539 4.99533H116.092V12.7729C116.092 13.3039 116.022 13.7177 115.881 14.0145C115.741 14.3112 115.491 14.5533 115.132 14.7407C114.757 14.8969 114.304 14.9906 113.773 15.0218C113.242 15.0374 112.625 15.0452 111.922 15.0452C111.875 14.7485 111.782 14.4127 111.641 14.0379C111.5 13.6631 111.36 13.3351 111.219 13.054C111.625 13.0696 112.016 13.0774 112.391 13.0774C112.781 13.0774 113.047 13.0774 113.187 13.0774C113.312 13.0774 113.398 13.054 113.445 13.0071C113.507 12.9447 113.539 12.8588 113.539 12.7494V4.99533ZM117.334 4.99533H125.416V7.17398H117.334V4.99533ZM124.104 4.99533H126.728V12.7026C126.728 13.2804 126.649 13.7255 126.493 14.0379C126.353 14.3346 126.079 14.5767 125.673 14.7641C125.283 14.9359 124.799 15.0452 124.221 15.0921C123.659 15.1233 122.995 15.1311 122.23 15.1155C122.183 14.7875 122.081 14.4283 121.925 14.0379C121.785 13.6318 121.636 13.2804 121.48 12.9837C121.933 12.9993 122.378 13.0149 122.815 13.0306C123.268 13.0306 123.565 13.0306 123.706 13.0306C123.846 13.0149 123.948 12.9837 124.01 12.9369C124.073 12.89 124.104 12.8041 124.104 12.6792V4.99533ZM116.654 11.9061C117.498 11.6562 118.489 11.3439 119.629 10.969C120.769 10.5786 121.925 10.1804 123.096 9.7743L123.542 11.789C122.526 12.1794 121.496 12.5698 120.449 12.9603C119.419 13.3351 118.466 13.6787 117.591 13.991L116.654 11.9061ZM117.732 8.55613L119.091 6.89286C119.606 7.14275 120.168 7.4551 120.777 7.82992C121.402 8.18912 121.886 8.5249 122.23 8.83725L120.801 10.6645C120.488 10.3365 120.028 9.97733 119.419 9.58689C118.825 9.18083 118.263 8.83725 117.732 8.55613ZM105.995 12.3043C106.776 12.0701 107.705 11.7733 108.783 11.4141C109.876 11.0393 110.985 10.6489 112.11 10.2428L112.531 12.2809C111.579 12.6714 110.618 13.0774 109.65 13.4991C108.697 13.9051 107.807 14.2722 106.979 14.6001L105.995 12.3043ZM107.237 8.57956L108.572 6.96314C109.088 7.21302 109.642 7.52537 110.235 7.90019C110.829 8.2594 111.29 8.59518 111.618 8.90753L110.212 10.7114C109.9 10.3834 109.455 10.0164 108.877 9.61032C108.299 9.20426 107.752 8.86067 107.237 8.57956Z" fill="#00A15D"/>
<mask id="path-7-outside-1_14680_4409" maskUnits="userSpaceOnUse" x="131.749" y="4.35156" width="48" height="22" fill="black">
<rect fill="white" x="131.749" y="4.35156" width="48" height="22"/>
<path d="M138.52 16.1915V13.6491C139.781 13.6491 140.628 13.5086 141.062 13.2275C141.837 12.7335 142.225 11.9414 142.225 10.8513C142.225 10.0081 141.944 9.32244 141.382 8.79438C140.828 8.2578 140.109 7.98951 139.223 7.98951C138.397 7.98951 137.758 8.18967 137.306 8.58997C136.872 8.99879 136.548 9.68867 136.335 10.6596H133.372C133.678 8.80289 134.308 7.44442 135.262 6.5842C136.216 5.71546 137.549 5.28109 139.261 5.28109C140.99 5.28109 142.4 5.79211 143.49 6.81416C144.58 7.82769 145.125 9.13506 145.125 10.7363C145.125 12.5419 144.41 13.9472 142.979 14.9522C144.614 15.9146 145.432 17.4775 145.432 19.6409C145.432 21.4124 144.836 22.8603 143.643 23.9846C142.451 25.1088 140.922 25.671 139.057 25.671C136.68 25.671 134.917 24.798 133.768 23.052C133.291 22.3195 132.988 21.306 132.861 20.0114H135.735C135.888 20.9653 136.259 21.6977 136.846 22.2088C137.443 22.7113 138.218 22.9625 139.172 22.9625C140.134 22.9625 140.93 22.6431 141.561 22.0044C142.191 21.3485 142.506 20.5181 142.506 19.5131C142.506 18.1844 142.033 17.2391 141.088 16.6769C140.534 16.3533 139.678 16.1915 138.52 16.1915ZM158.169 4.93614L160.354 6.57142L155.639 12.9848C155.895 12.9507 156.112 12.9252 156.291 12.9081C156.47 12.8911 156.61 12.8826 156.713 12.8826C158.314 12.8826 159.698 13.4958 160.865 14.7223C162.023 15.9317 162.602 17.3881 162.602 19.0915C162.602 20.8971 161.955 22.4472 160.66 23.7418C159.374 25.0279 157.828 25.671 156.023 25.671C154.234 25.671 152.667 25.0364 151.321 23.7674C150.001 22.4983 149.341 20.9951 149.341 19.2576C149.341 17.699 149.984 16.0467 151.27 14.3007L158.169 4.93614ZM159.702 19.2831C159.702 18.2356 159.34 17.3498 158.616 16.6258C157.884 15.8934 157.002 15.5271 155.972 15.5271C154.932 15.5271 154.051 15.8891 153.327 16.613C152.603 17.337 152.241 18.2143 152.241 19.2448C152.241 20.2754 152.603 21.1526 153.327 21.8766C154.051 22.6005 154.937 22.9625 155.984 22.9625C157.006 22.9625 157.879 22.6005 158.603 21.8766C159.336 21.1441 159.702 20.2796 159.702 19.2831ZM165.157 15.361C165.157 12.2182 165.89 9.70996 167.355 7.83621C168.666 6.14131 170.255 5.29386 172.12 5.29386C173.985 5.29386 175.574 6.14131 176.885 7.83621C178.35 9.70996 179.083 12.2608 179.083 15.4888C179.083 18.7082 178.35 21.2549 176.885 23.1286C175.574 24.8235 173.989 25.671 172.133 25.671C170.276 25.671 168.683 24.8235 167.355 23.1286C165.89 21.2549 165.157 18.6657 165.157 15.361ZM168.083 15.3738C168.083 17.5627 168.462 19.3811 169.22 20.829C169.978 22.2513 170.945 22.9625 172.12 22.9625C173.287 22.9625 174.253 22.2513 175.02 20.829C175.787 19.4152 176.17 17.6308 176.17 15.476C176.17 13.3212 175.787 11.5326 175.02 10.1103C174.253 8.69643 173.287 7.98951 172.12 7.98951C170.962 7.98951 169.999 8.69643 169.233 10.1103C168.466 11.5156 168.083 13.2701 168.083 15.3738Z"/>
</mask>
<path d="M138.52 16.1915V13.6491C139.781 13.6491 140.628 13.5086 141.062 13.2275C141.837 12.7335 142.225 11.9414 142.225 10.8513C142.225 10.0081 141.944 9.32244 141.382 8.79438C140.828 8.2578 140.109 7.98951 139.223 7.98951C138.397 7.98951 137.758 8.18967 137.306 8.58997C136.872 8.99879 136.548 9.68867 136.335 10.6596H133.372C133.678 8.80289 134.308 7.44442 135.262 6.5842C136.216 5.71546 137.549 5.28109 139.261 5.28109C140.99 5.28109 142.4 5.79211 143.49 6.81416C144.58 7.82769 145.125 9.13506 145.125 10.7363C145.125 12.5419 144.41 13.9472 142.979 14.9522C144.614 15.9146 145.432 17.4775 145.432 19.6409C145.432 21.4124 144.836 22.8603 143.643 23.9846C142.451 25.1088 140.922 25.671 139.057 25.671C136.68 25.671 134.917 24.798 133.768 23.052C133.291 22.3195 132.988 21.306 132.861 20.0114H135.735C135.888 20.9653 136.259 21.6977 136.846 22.2088C137.443 22.7113 138.218 22.9625 139.172 22.9625C140.134 22.9625 140.93 22.6431 141.561 22.0044C142.191 21.3485 142.506 20.5181 142.506 19.5131C142.506 18.1844 142.033 17.2391 141.088 16.6769C140.534 16.3533 139.678 16.1915 138.52 16.1915ZM158.169 4.93614L160.354 6.57142L155.639 12.9848C155.895 12.9507 156.112 12.9252 156.291 12.9081C156.47 12.8911 156.61 12.8826 156.713 12.8826C158.314 12.8826 159.698 13.4958 160.865 14.7223C162.023 15.9317 162.602 17.3881 162.602 19.0915C162.602 20.8971 161.955 22.4472 160.66 23.7418C159.374 25.0279 157.828 25.671 156.023 25.671C154.234 25.671 152.667 25.0364 151.321 23.7674C150.001 22.4983 149.341 20.9951 149.341 19.2576C149.341 17.699 149.984 16.0467 151.27 14.3007L158.169 4.93614ZM159.702 19.2831C159.702 18.2356 159.34 17.3498 158.616 16.6258C157.884 15.8934 157.002 15.5271 155.972 15.5271C154.932 15.5271 154.051 15.8891 153.327 16.613C152.603 17.337 152.241 18.2143 152.241 19.2448C152.241 20.2754 152.603 21.1526 153.327 21.8766C154.051 22.6005 154.937 22.9625 155.984 22.9625C157.006 22.9625 157.879 22.6005 158.603 21.8766C159.336 21.1441 159.702 20.2796 159.702 19.2831ZM165.157 15.361C165.157 12.2182 165.89 9.70996 167.355 7.83621C168.666 6.14131 170.255 5.29386 172.12 5.29386C173.985 5.29386 175.574 6.14131 176.885 7.83621C178.35 9.70996 179.083 12.2608 179.083 15.4888C179.083 18.7082 178.35 21.2549 176.885 23.1286C175.574 24.8235 173.989 25.671 172.133 25.671C170.276 25.671 168.683 24.8235 167.355 23.1286C165.89 21.2549 165.157 18.6657 165.157 15.361ZM168.083 15.3738C168.083 17.5627 168.462 19.3811 169.22 20.829C169.978 22.2513 170.945 22.9625 172.12 22.9625C173.287 22.9625 174.253 22.2513 175.02 20.829C175.787 19.4152 176.17 17.6308 176.17 15.476C176.17 13.3212 175.787 11.5326 175.02 10.1103C174.253 8.69643 173.287 7.98951 172.12 7.98951C170.962 7.98951 169.999 8.69643 169.233 10.1103C168.466 11.5156 168.083 13.2701 168.083 15.3738Z" fill="#00A15D"/>
<path d="M138.52 16.1915H138.226V16.4858H138.52V16.1915ZM138.52 13.6491V13.3548H138.226V13.6491H138.52ZM141.062 13.2275L140.904 12.9793L140.903 12.9804L141.062 13.2275ZM141.382 8.79438L141.177 9.00577L141.18 9.00891L141.382 8.79438ZM137.306 8.58997L137.111 8.36964L137.105 8.37562L137.306 8.58997ZM136.335 10.6596V10.954H136.572L136.623 10.7227L136.335 10.6596ZM133.372 10.6596L133.081 10.6117L133.025 10.954H133.372V10.6596ZM135.262 6.5842L135.459 6.80279L135.461 6.80182L135.262 6.5842ZM143.49 6.81416L143.288 7.0289L143.289 7.02974L143.49 6.81416ZM142.979 14.9522L142.81 14.7113L142.436 14.9741L142.829 15.2059L142.979 14.9522ZM133.768 23.052L133.521 23.2126L133.522 23.2138L133.768 23.052ZM132.861 20.0114V19.717H132.536L132.568 20.0403L132.861 20.0114ZM135.735 20.0114L136.026 19.9647L135.986 19.717H135.735V20.0114ZM136.846 22.2088L136.653 22.4309L136.657 22.4338L136.846 22.2088ZM141.561 22.0044L141.77 22.2111L141.773 22.2083L141.561 22.0044ZM141.088 16.6769L141.238 16.4239L141.237 16.4228L141.088 16.6769ZM138.52 16.1915H138.814V13.6491H138.52H138.226V16.1915H138.52ZM138.52 13.6491V13.9435C139.16 13.9435 139.704 13.9079 140.149 13.8341C140.59 13.761 140.956 13.6469 141.222 13.4746L141.062 13.2275L140.903 12.9804C140.734 13.0892 140.46 13.1859 140.053 13.2533C139.651 13.32 139.141 13.3548 138.52 13.3548V13.6491ZM141.062 13.2275L141.221 13.4757C142.097 12.9169 142.519 12.0202 142.519 10.8513H142.225H141.931C141.931 11.8626 141.578 12.5501 140.904 12.9793L141.062 13.2275ZM142.225 10.8513H142.519C142.519 9.93523 142.211 9.16905 141.583 8.57984L141.382 8.79438L141.18 9.00891C141.677 9.47582 141.931 10.0809 141.931 10.8513H142.225ZM141.382 8.79438L141.587 8.58301C140.97 7.98523 140.173 7.69516 139.223 7.69516V7.98951V8.28386C140.044 8.28386 140.687 8.53037 141.177 9.00574L141.382 8.79438ZM139.223 7.98951V7.69516C138.351 7.69516 137.633 7.90652 137.111 8.36974L137.306 8.58997L137.502 8.8102C137.882 8.47281 138.442 8.28386 139.223 8.28386V7.98951ZM137.306 8.58997L137.105 8.37562C136.607 8.84407 136.266 9.60248 136.048 10.5966L136.335 10.6596L136.623 10.7227C136.831 9.77486 137.137 9.1535 137.508 8.80431L137.306 8.58997ZM136.335 10.6596V10.3653H133.372V10.6596V10.954H136.335V10.6596ZM133.372 10.6596L133.662 10.7076C133.963 8.88708 134.573 7.60173 135.459 6.80279L135.262 6.5842L135.065 6.3656C134.043 7.28711 133.394 8.71871 133.081 10.6117L133.372 10.6596ZM135.262 6.5842L135.461 6.80182C136.345 5.99675 137.598 5.57544 139.261 5.57544V5.28109V4.98674C137.5 4.98674 136.088 5.43416 135.064 6.36657L135.262 6.5842ZM139.261 5.28109V5.57544C140.928 5.57544 142.261 6.066 143.288 7.0289L143.49 6.81416L143.691 6.59942C142.538 5.51822 141.052 4.98674 139.261 4.98674V5.28109ZM143.49 6.81416L143.289 7.02974C144.315 7.98303 144.831 9.20992 144.831 10.7363H145.125H145.419C145.419 9.0602 144.845 7.67235 143.69 6.59858L143.49 6.81416ZM145.125 10.7363H144.831C144.831 12.4497 144.159 13.7635 142.81 14.7113L142.979 14.9522L143.148 15.1931C144.66 14.1309 145.419 12.6341 145.419 10.7363H145.125ZM142.979 14.9522L142.829 15.2059C144.361 16.1071 145.137 17.5643 145.137 19.6409H145.432H145.726C145.726 17.3907 144.867 15.7222 143.128 14.6985L142.979 14.9522ZM145.432 19.6409H145.137C145.137 21.3387 144.569 22.7066 143.441 23.7704L143.643 23.9846L143.845 24.1987C145.102 23.014 145.726 21.4862 145.726 19.6409H145.432ZM143.643 23.9846L143.441 23.7704C142.311 24.836 140.858 25.3766 139.057 25.3766V25.671V25.9653C140.986 25.9653 142.59 25.3817 143.845 24.1987L143.643 23.9846ZM139.057 25.671V25.3766C136.764 25.3766 135.101 24.541 134.013 22.8901L133.768 23.052L133.522 23.2138C134.734 25.0549 136.597 25.9653 139.057 25.9653V25.671ZM133.768 23.052L134.014 22.8913C133.573 22.213 133.279 21.2512 133.153 19.9825L132.861 20.0114L132.568 20.0403C132.698 21.3607 133.009 22.4259 133.521 23.2126L133.768 23.052ZM132.861 20.0114V20.3057H135.735V20.0114V19.717H132.861V20.0114ZM135.735 20.0114L135.444 20.0581C135.606 21.0632 136.002 21.8645 136.653 22.4309L136.846 22.2088L137.04 21.9866C136.516 21.531 136.171 20.8674 136.026 19.9647L135.735 20.0114ZM136.846 22.2088L136.657 22.4338C137.317 22.9905 138.164 23.2569 139.172 23.2569V22.9625V22.6682C138.271 22.6682 137.568 22.4321 137.036 21.9837L136.846 22.2088ZM139.172 22.9625V23.2569C140.207 23.2569 141.08 22.9103 141.77 22.2111L141.561 22.0044L141.351 21.7976C140.781 22.376 140.062 22.6682 139.172 22.6682V22.9625ZM141.561 22.0044L141.773 22.2083C142.462 21.4917 142.8 20.5855 142.8 19.5131H142.506H142.212C142.212 20.4508 141.92 21.2054 141.348 21.8004L141.561 22.0044ZM142.506 19.5131H142.8C142.8 18.1059 142.293 17.0509 141.238 16.4239L141.088 16.6769L140.938 16.9299C141.774 17.4272 142.212 18.263 142.212 19.5131H142.506ZM141.088 16.6769L141.237 16.4228C140.615 16.0592 139.695 15.8971 138.52 15.8971V16.1915V16.4858C139.662 16.4858 140.454 16.6474 140.939 16.931L141.088 16.6769ZM158.169 4.93614L158.345 4.7005L158.108 4.52276L157.932 4.76156L158.169 4.93614ZM160.354 6.57142L160.591 6.74576L160.764 6.51064L160.53 6.33578L160.354 6.57142ZM155.639 12.9848L155.402 12.8104L154.992 13.368L155.678 13.2765L155.639 12.9848ZM160.865 14.7223L160.651 14.9251L160.652 14.9259L160.865 14.7223ZM151.321 23.7674L151.117 23.9796L151.119 23.9815L151.321 23.7674ZM151.27 14.3007L151.033 14.1261L151.033 14.1261L151.27 14.3007ZM153.327 21.8766L153.119 22.0847L153.327 21.8766ZM158.603 21.8766L158.395 21.6685L158.603 21.8766ZM158.169 4.93614L157.993 5.17179L160.177 6.80707L160.354 6.57142L160.53 6.33578L158.345 4.7005L158.169 4.93614ZM160.354 6.57142L160.116 6.39709L155.402 12.8104L155.639 12.9848L155.877 13.1591L160.591 6.74576L160.354 6.57142ZM155.639 12.9848L155.678 13.2765C155.932 13.2428 156.145 13.2177 156.319 13.2011L156.291 12.9081L156.263 12.6151C156.079 12.6326 155.858 12.6586 155.601 12.693L155.639 12.9848ZM156.291 12.9081L156.319 13.2011C156.494 13.1844 156.624 13.1769 156.713 13.1769V12.8826V12.5882C156.597 12.5882 156.445 12.5977 156.263 12.6151L156.291 12.9081ZM156.713 12.8826V13.1769C158.228 13.1769 159.537 13.7533 160.651 14.9251L160.865 14.7223L161.078 14.5194C159.859 13.2383 158.399 12.5882 156.713 12.5882V12.8826ZM160.865 14.7223L160.652 14.9259C161.757 16.0794 162.308 17.4625 162.308 19.0915H162.602H162.896C162.896 17.3137 162.289 15.7839 161.077 14.5187L160.865 14.7223ZM162.602 19.0915H162.308C162.308 20.8179 161.692 22.2934 160.452 23.5337L160.66 23.7418L160.868 23.95C162.217 22.601 162.896 20.9764 162.896 19.0915H162.602ZM160.66 23.7418L160.452 23.5337C159.221 24.765 157.75 25.3766 156.023 25.3766V25.671V25.9653C157.907 25.9653 159.528 25.2908 160.868 23.95L160.66 23.7418ZM156.023 25.671V25.3766C154.312 25.3766 152.816 24.7727 151.523 23.5532L151.321 23.7674L151.119 23.9815C152.518 25.3001 154.156 25.9653 156.023 25.9653V25.671ZM151.321 23.7674L151.525 23.5552C150.259 22.3383 149.635 20.9103 149.635 19.2576H149.341H149.047C149.047 21.0799 149.743 22.6584 151.117 23.9796L151.321 23.7674ZM149.341 19.2576H149.635C149.635 17.7822 150.244 16.19 151.507 14.4752L151.27 14.3007L151.033 14.1261C149.724 15.9034 149.047 17.6158 149.047 19.2576H149.341ZM151.27 14.3007L151.507 14.4753L158.406 5.11073L158.169 4.93614L157.932 4.76156L151.033 14.1261L151.27 14.3007ZM159.702 19.2831H159.996C159.996 18.1595 159.605 17.1983 158.824 16.4177L158.616 16.6258L158.408 16.834C159.075 17.5013 159.408 18.3116 159.408 19.2831H159.702ZM158.616 16.6258L158.824 16.4177C158.037 15.6303 157.081 15.2328 155.972 15.2328V15.5271V15.8215C156.924 15.8215 157.73 16.1564 158.408 16.834L158.616 16.6258ZM155.972 15.5271V15.2328C154.856 15.2328 153.899 15.6248 153.119 16.4049L153.327 16.613L153.535 16.8212C154.203 16.1534 155.009 15.8215 155.972 15.8215V15.5271ZM153.327 16.613L153.119 16.4049C152.339 17.1845 151.947 18.1368 151.947 19.2448H152.241H152.535C152.535 18.2917 152.867 17.4895 153.535 16.8212L153.327 16.613ZM152.241 19.2448H151.947C151.947 20.3529 152.339 21.3052 153.119 22.0847L153.327 21.8766L153.535 21.6685C152.867 21.0001 152.535 20.1979 152.535 19.2448H152.241ZM153.327 21.8766L153.119 22.0847C153.899 22.8653 154.861 23.2569 155.984 23.2569V22.9625V22.6682C155.013 22.6682 154.202 22.3358 153.535 21.6685L153.327 21.8766ZM155.984 22.9625V23.2569C157.085 23.2569 158.032 22.8638 158.811 22.0847L158.603 21.8766L158.395 21.6685C157.726 22.3373 156.928 22.6682 155.984 22.6682V22.9625ZM158.603 21.8766L158.811 22.0847C159.597 21.2995 159.996 20.3611 159.996 19.2831H159.702H159.408C159.408 20.1982 159.075 20.9888 158.395 21.6685L158.603 21.8766ZM167.355 7.83621L167.587 8.01751L167.587 8.01635L167.355 7.83621ZM176.885 7.83621L176.652 8.01636L176.653 8.0175L176.885 7.83621ZM176.885 23.1286L176.653 22.9473L176.652 22.9485L176.885 23.1286ZM167.355 23.1286L167.123 23.3099L167.123 23.3102L167.355 23.1286ZM169.22 20.829L168.959 20.9655L168.96 20.9674L169.22 20.829ZM175.02 20.829L174.761 20.6887L174.761 20.6894L175.02 20.829ZM175.02 10.1103L175.279 9.97062L175.279 9.96997L175.02 10.1103ZM169.233 10.1103L169.491 10.2512L169.491 10.2506L169.233 10.1103ZM165.157 15.361H165.452C165.452 12.2628 166.173 9.82499 167.587 8.0175L167.355 7.83621L167.123 7.65491C165.606 9.59493 164.863 12.1737 164.863 15.361H165.157ZM167.355 7.83621L167.587 8.01635C168.853 6.38133 170.36 5.58821 172.12 5.58821V5.29386V4.99951C170.149 4.99951 168.48 5.90129 167.122 7.65606L167.355 7.83621ZM172.12 5.29386V5.58821C173.88 5.58821 175.387 6.38133 176.652 8.01635L176.885 7.83621L177.118 7.65606C175.76 5.90129 174.091 4.99951 172.12 4.99951V5.29386ZM176.885 7.83621L176.653 8.0175C178.065 9.82374 178.788 12.3033 178.788 15.4888H179.083H179.377C179.377 12.2184 178.635 9.59619 177.117 7.65491L176.885 7.83621ZM179.083 15.4888H178.788C178.788 18.6656 178.066 21.141 176.653 22.9473L176.885 23.1286L177.117 23.3099C178.635 21.3687 179.377 18.7509 179.377 15.4888H179.083ZM176.885 23.1286L176.652 22.9485C175.387 24.5839 173.884 25.3766 172.133 25.3766V25.671V25.9653C174.095 25.9653 175.76 25.0631 177.118 23.3088L176.885 23.1286ZM172.133 25.671V25.3766C170.382 25.3766 168.869 24.5836 167.586 22.947L167.355 23.1286L167.123 23.3102C168.497 25.0635 170.17 25.9653 172.133 25.9653V25.671ZM167.355 23.1286L167.587 22.9473C166.175 21.1422 165.452 18.6251 165.452 15.361H165.157H164.863C164.863 18.7062 165.604 21.3675 167.123 23.3099L167.355 23.1286ZM168.083 15.3738H167.788C167.788 17.5948 168.173 19.4637 168.959 20.9655L169.22 20.829L169.481 20.6925C168.751 19.2985 168.377 17.5306 168.377 15.3738H168.083ZM169.22 20.829L168.96 20.9674C169.748 22.445 170.796 23.2569 172.12 23.2569V22.9625V22.6682C171.093 22.6682 170.208 22.0577 169.48 20.6906L169.22 20.829ZM172.12 22.9625V23.2569C173.435 23.2569 174.484 22.4446 175.279 20.9686L175.02 20.829L174.761 20.6894C174.023 22.0581 173.138 22.6682 172.12 22.6682V22.9625ZM175.02 20.829L175.279 20.9693C176.075 19.5002 176.464 17.6638 176.464 15.476H176.17H175.875C175.875 17.5978 175.498 19.3301 174.761 20.6887L175.02 20.829ZM176.17 15.476H176.464C176.464 13.2881 176.075 11.4478 175.279 9.97062L175.02 10.1103L174.761 10.2499C175.498 11.6174 175.875 13.3543 175.875 15.476H176.17ZM175.02 10.1103L175.279 9.96997C174.483 8.50207 173.434 7.69516 172.12 7.69516V7.98951V8.28386C173.139 8.28386 174.024 8.89079 174.761 10.2506L175.02 10.1103ZM172.12 7.98951V7.69516C170.813 7.69516 169.769 8.50305 168.974 9.96997L169.233 10.1103L169.491 10.2506C170.229 8.88982 171.11 8.28386 172.12 8.28386V7.98951ZM169.233 10.1103L168.974 9.96932C168.178 11.4293 167.788 13.2358 167.788 15.3738H168.083H168.377C168.377 13.3044 168.754 11.6018 169.491 10.2512L169.233 10.1103Z" fill="#00A15D" mask="url(#path-7-outside-1_14680_4409)"/>
</svg>
