<svg width="20" height="20" viewBox="0 0 20 20" fill="none" xmlns="http://www.w3.org/2000/svg">
<mask id="mask0_14680_244" style="mask-type:alpha" maskUnits="userSpaceOnUse" x="0" y="0" width="20" height="20">
<rect width="20" height="20" fill="#D9D9D9"/>
</mask>
<g mask="url(#mask0_14680_244)">
<path d="M10.833 14.2085C11.4441 13.9168 12.0587 13.6981 12.6768 13.5522C13.2948 13.4064 13.9302 13.3335 14.583 13.3335C15.083 13.3335 15.5726 13.3752 16.0518 13.4585C16.5309 13.5418 17.0136 13.6668 17.4997 13.8335V5.5835C17.0413 5.38905 16.5656 5.24322 16.0726 5.146C15.5795 5.04877 15.083 5.00016 14.583 5.00016C13.9302 5.00016 13.2844 5.0835 12.6455 5.25016C12.0066 5.41683 11.4025 5.66683 10.833 6.00016V14.2085ZM9.99967 16.2293C9.80523 16.2293 9.6212 16.205 9.44759 16.1564C9.27398 16.1078 9.11079 16.0418 8.95801 15.9585C8.41634 15.6391 7.8469 15.3995 7.24968 15.2397C6.65245 15.08 6.04134 15.0002 5.41634 15.0002C4.83301 15.0002 4.26009 15.0766 3.69759 15.2293C3.13509 15.3821 2.5969 15.5974 2.08301 15.8752C1.79134 16.0279 1.51009 16.021 1.23926 15.8543C0.968424 15.6877 0.833008 15.4446 0.833008 15.1252V5.0835C0.833008 4.93072 0.871202 4.78489 0.947591 4.646C1.02398 4.50711 1.13856 4.40294 1.29134 4.3335C1.94412 4.01405 2.61426 3.76752 3.30176 3.59391C3.98926 3.4203 4.69412 3.3335 5.41634 3.3335C6.2219 3.3335 7.01009 3.43766 7.78093 3.646C8.55176 3.85433 9.29134 4.16683 9.99967 4.5835C10.708 4.16683 11.4476 3.85433 12.2184 3.646C12.9893 3.43766 13.7775 3.3335 14.583 3.3335C15.3052 3.3335 16.0101 3.4203 16.6976 3.59391C17.3851 3.76752 18.0552 4.01405 18.708 4.3335C18.8608 4.40294 18.9754 4.50711 19.0518 4.646C19.1281 4.78489 19.1663 4.93072 19.1663 5.0835V15.1252C19.1663 15.4446 19.0309 15.6877 18.7601 15.8543C18.4893 16.021 18.208 16.0279 17.9163 15.8752C17.4025 15.5974 16.8643 15.3821 16.3018 15.2293C15.7393 15.0766 15.1663 15.0002 14.583 15.0002C13.958 15.0002 13.3469 15.08 12.7497 15.2397C12.1525 15.3995 11.583 15.6391 11.0413 15.9585C10.8886 16.0418 10.7254 16.1078 10.5518 16.1564C10.3781 16.205 10.1941 16.2293 9.99967 16.2293ZM11.6663 7.31266C11.6663 7.18766 11.7115 7.05919 11.8018 6.92725C11.892 6.7953 11.9927 6.7085 12.1038 6.66683C12.5066 6.52794 12.9094 6.42377 13.3122 6.35433C13.715 6.28489 14.1386 6.25016 14.583 6.25016C14.8608 6.25016 15.1351 6.26752 15.4059 6.30225C15.6768 6.33697 15.9441 6.38211 16.208 6.43766C16.333 6.46544 16.4406 6.53489 16.5309 6.646C16.6212 6.75711 16.6663 6.88211 16.6663 7.021C16.6663 7.25711 16.59 7.43072 16.4372 7.54183C16.2844 7.65294 16.09 7.68072 15.8538 7.62516C15.6594 7.5835 15.4545 7.55225 15.2393 7.53141C15.024 7.51058 14.8052 7.50016 14.583 7.50016C14.2219 7.50016 13.8677 7.53489 13.5205 7.60433C13.1733 7.67377 12.84 7.76405 12.5205 7.87516C12.2705 7.97239 12.0656 7.96544 11.9059 7.85433C11.7462 7.74322 11.6663 7.56266 11.6663 7.31266ZM11.6663 11.896C11.6663 11.771 11.7115 11.6425 11.8018 11.5106C11.892 11.3786 11.9927 11.2918 12.1038 11.2502C12.5066 11.1113 12.9094 11.0071 13.3122 10.9377C13.715 10.8682 14.1386 10.8335 14.583 10.8335C14.8608 10.8335 15.1351 10.8509 15.4059 10.8856C15.6768 10.9203 15.9441 10.9654 16.208 11.021C16.333 11.0488 16.4406 11.1182 16.5309 11.2293C16.6212 11.3404 16.6663 11.4654 16.6663 11.6043C16.6663 11.8404 16.59 12.0141 16.4372 12.1252C16.2844 12.2363 16.09 12.2641 15.8538 12.2085C15.6594 12.1668 15.4545 12.1356 15.2393 12.1147C15.024 12.0939 14.8052 12.0835 14.583 12.0835C14.2219 12.0835 13.8677 12.1147 13.5205 12.1772C13.1733 12.2397 12.84 12.3266 12.5205 12.4377C12.2705 12.5349 12.0656 12.5314 11.9059 12.4272C11.7462 12.3231 11.6663 12.146 11.6663 11.896ZM11.6663 9.60433C11.6663 9.47933 11.7115 9.35086 11.8018 9.21891C11.892 9.08697 11.9927 9.00016 12.1038 8.9585C12.5066 8.81961 12.9094 8.71544 13.3122 8.646C13.715 8.57655 14.1386 8.54183 14.583 8.54183C14.8608 8.54183 15.1351 8.55919 15.4059 8.59391C15.6768 8.62864 15.9441 8.67377 16.208 8.72933C16.333 8.75711 16.4406 8.82655 16.5309 8.93766C16.6212 9.04877 16.6663 9.17377 16.6663 9.31266C16.6663 9.54877 16.59 9.72239 16.4372 9.8335C16.2844 9.94461 16.09 9.97239 15.8538 9.91683C15.6594 9.87516 15.4545 9.84391 15.2393 9.82308C15.024 9.80225 14.8052 9.79183 14.583 9.79183C14.2219 9.79183 13.8677 9.82655 13.5205 9.896C13.1733 9.96544 12.84 10.0557 12.5205 10.1668C12.2705 10.2641 12.0656 10.2571 11.9059 10.146C11.7462 10.0349 11.6663 9.85433 11.6663 9.60433Z" fill="#C4CDD5"/>
</g>
</svg>
