<svg width="20" height="20" viewBox="0 0 20 20" fill="none" xmlns="http://www.w3.org/2000/svg">
<path d="M11.667 15.8333C12.1272 15.8333 12.5003 16.2064 12.5003 16.6667H14.167C14.6272 16.6667 15.0003 17.0398 15.0003 17.5C15.0003 17.9602 14.6272 18.3333 14.167 18.3333H5.83366C5.37342 18.3333 5.00033 17.9602 5.00033 17.5C5.00033 17.0398 5.37342 16.6667 5.83366 16.6667H7.50033C7.50033 16.2064 7.87342 15.8333 8.33366 15.8333H11.667Z" fill="#C4CDD5"/>
<path fill-rule="evenodd" clip-rule="evenodd" d="M16.8371 2.50895C17.6776 2.59417 18.3337 3.30362 18.3337 4.16667V13.3333C18.3337 14.2538 17.5875 15 16.667 15H3.33366C2.41318 15 1.66699 14.2538 1.66699 13.3333V4.16667C1.66699 3.24619 2.41318 2.5 3.33366 2.5H16.667L16.8371 2.50895ZM3.33366 3.75C3.10354 3.75 2.91699 3.93655 2.91699 4.16667V12.0833H17.0837V4.16667C17.0837 3.93655 16.8971 3.75 16.667 3.75H3.33366Z" fill="#C4CDD5"/>
</svg>
