<svg width="20" height="20" viewBox="0 0 20 20" fill="none" xmlns="http://www.w3.org/2000/svg">
<path d="M5.23024 9.61069L9.61101 5.23056L8.17484 3.79439L6.16707 5.80217C6.14313 5.82616 6.11469 5.84519 6.08338 5.85817C6.05207 5.87116 6.01851 5.87784 5.98462 5.87784C5.95073 5.87784 5.91717 5.87116 5.88586 5.85817C5.85455 5.84519 5.82611 5.82616 5.80217 5.80217L5.43727 5.43726C5.33636 5.33635 5.33636 5.17295 5.43727 5.07236L7.44504 3.06459L6.35001 1.96923C5.9467 1.56592 5.29306 1.56592 4.88975 1.96923L1.96956 4.88942C1.56657 5.29274 1.56625 5.94637 1.96956 6.34968L5.23024 9.61069V9.61069ZM17.8755 5.80868C18.4862 5.19801 18.4858 4.20812 17.8755 3.59746L16.4026 2.1245C15.7919 1.51384 14.8017 1.51384 14.1907 2.1245L12.6927 3.6222L16.3775 7.30702L17.8755 5.80868V5.80868ZM11.956 4.35916L2.28824 14.0256L1.67757 17.523C1.59522 17.9946 2.00602 18.4054 2.47801 18.3224L5.97567 17.7092L15.6408 8.04366L11.956 4.35916ZM18.0311 13.6503L16.9361 12.5553L14.9283 14.5631C14.8274 14.664 14.664 14.664 14.5634 14.5631L14.1985 14.1982C14.0979 14.0973 14.0979 13.9338 14.1985 13.8333L16.2063 11.8255L14.7694 10.3887L10.3887 14.7688L13.6507 18.0304C14.054 18.4338 14.7076 18.4338 15.1109 18.0304L18.0311 15.1106C18.4344 14.7073 18.4344 14.0536 18.0311 13.6503Z" fill="#00A15D"/>
</svg>
